<?xml version="1.0" standalone="no"?>
<!DOCTYPE svg PUBLIC "-//W3C//DTD SVG 20010904//EN"
 "http://www.w3.org/TR/2001/REC-SVG-20010904/DTD/svg10.dtd">
<svg version="1.0" xmlns="http://www.w3.org/2000/svg"
 width="120px" height="100px" viewBox="0 0 1000 1000"
 preserveAspectRatio="xMidYMid meet">
<metadata>
Created by potrace 1.10, written by Peter Selinger 2001-2011
</metadata>
<g transform="translate(0.000000,600.000000) scale(0.100000,-0.100000)"
fill="#000000" stroke="none">
<path d="M4273 5901 c-93 -24 -173 -128 -173 -225 0 -71 29 -135 85 -184 118
-104 296 -66 369 80 56 112 16 237 -99 308 -37 23 -133 34 -182 21z"/>
<path d="M1494 5421 c-72 -18 -134 -83 -161 -166 -17 -52 -16 -66 3 -133 29
-99 128 -172 232 -172 91 0 200 80 222 162 19 69 7 163 -27 211 -46 67 -97 97
-173 102 -36 2 -79 1 -96 -4z"/>
<path d="M7175 5183 c-43 -6 -105 -52 -140 -103 -27 -41 -30 -53 -30 -126 0
-76 2 -85 34 -131 41 -60 81 -87 152 -103 117 -26 239 46 273 161 19 63 20 82
3 134 -31 101 -104 162 -202 169 -33 2 -73 2 -90 -1z"/>
<path d="M4304 5115 c-9 -15 -24 -70 -31 -123 -20 -140 -28 -638 -13 -867 6
-104 15 -260 20 -345 13 -232 41 -479 70 -608 17 -73 14 -77 -27 -44 -21 17
-47 39 -58 49 -28 26 -207 161 -290 218 -128 88 -287 195 -290 195 -2 0 -32
19 -67 43 -35 23 -73 47 -84 54 -24 15 -148 93 -179 113 -50 32 -491 297 -505
303 -8 4 -28 16 -45 26 -16 11 -50 31 -75 44 -25 14 -61 34 -80 45 -244 143
-623 328 -765 373 -95 30 -113 27 -135 -23 -38 -83 -17 -366 56 -753 8 -44 22
-116 30 -160 8 -44 21 -109 29 -145 7 -36 21 -101 30 -145 9 -44 23 -105 30
-135 7 -30 21 -91 31 -135 9 -44 23 -100 30 -124 8 -25 14 -53 14 -64 0 -11 6
-43 14 -71 8 -28 21 -78 30 -111 23 -96 47 -186 62 -242 8 -29 21 -78 29 -108
50 -186 75 -277 87 -310 5 -16 13 -46 18 -65 4 -19 12 -46 17 -60 6 -14 18
-50 28 -80 38 -124 73 -200 91 -200 25 0 57 136 74 315 4 44 13 118 19 165 6
47 18 137 27 200 37 286 80 504 121 615 31 85 77 166 105 186 106 76 368 64
928 -42 36 -7 85 -15 110 -19 46 -7 117 -20 245 -45 39 -7 124 -19 189 -26
108 -11 124 -11 168 5 27 9 57 14 67 11 28 -8 168 31 266 75 17 7 50 22 75 33
25 11 149 70 275 132 559 273 552 270 657 306 56 20 58 20 82 2 44 -33 92
-157 116 -303 5 -25 13 -72 19 -105 25 -145 34 -205 41 -280 5 -44 13 -118 19
-165 10 -80 20 -185 56 -557 9 -87 20 -201 26 -253 6 -52 14 -133 19 -180 8
-74 19 -128 36 -179 3 -11 10 -9 29 9 14 13 25 29 25 36 0 7 6 25 14 41 8 15
22 47 30 71 9 23 23 60 31 82 39 105 65 178 75 215 8 28 16 53 45 135 7 19 21
62 30 95 10 33 23 76 30 95 7 19 21 62 30 95 10 33 24 75 31 93 8 18 14 42 14
53 0 11 5 29 11 40 10 20 32 89 49 159 4 19 13 49 18 65 6 17 18 57 28 90 9
33 23 78 29 100 7 22 20 67 29 100 10 33 23 80 31 105 7 25 20 74 30 110 10
36 23 85 30 110 32 112 81 296 120 450 9 36 23 88 31 116 8 28 14 59 14 69 0
10 6 41 14 69 30 109 47 204 49 281 2 77 1 80 -22 83 -32 5 -153 -48 -306
-133 -33 -19 -82 -46 -110 -60 -27 -14 -63 -35 -80 -45 -16 -10 -52 -31 -80
-46 -89 -49 -100 -55 -130 -74 -16 -11 -37 -23 -45 -27 -8 -4 -46 -26 -85 -48
-38 -23 -77 -45 -85 -49 -8 -4 -24 -12 -35 -19 -11 -7 -51 -30 -90 -52 -38
-22 -79 -45 -90 -52 -11 -6 -42 -23 -70 -38 -27 -14 -90 -48 -140 -75 -90 -50
-331 -170 -393 -196 -144 -62 -200 -79 -293 -91 -85 -10 -146 43 -215 184 -24
50 -44 96 -44 102 0 6 -6 25 -14 43 -14 35 -34 101 -61 208 -9 36 -23 88 -31
116 -8 28 -14 59 -14 70 0 10 -6 48 -15 84 -8 36 -21 100 -30 143 -8 42 -21
110 -29 150 -8 39 -22 110 -31 157 -35 181 -79 332 -105 355 -17 16 -19 15
-36 -10z"/>
<path d="M5405 3290 c-39 -8 -74 -20 -145 -53 -198 -88 -267 -381 -184 -777
27 -127 78 -278 115 -340 5 -8 13 -25 19 -37 20 -47 86 -101 146 -118 117 -34
220 -6 311 85 107 107 132 204 136 520 4 411 -49 610 -185 696 -44 28 -142 39
-213 24z m93 -293 c52 -22 83 -78 96 -177 7 -51 -24 -244 -48 -301 -24 -58
-64 -99 -94 -99 -57 0 -132 102 -163 222 -24 91 -24 119 1 199 23 74 67 133
114 154 40 17 57 18 94 2z"/>
<path d="M3038 3091 c-102 -37 -199 -121 -242 -209 -10 -20 -24 -48 -31 -62
-6 -14 -18 -64 -25 -112 -19 -128 -3 -236 65 -425 18 -51 69 -157 95 -198 11
-16 24 -39 30 -50 50 -96 202 -274 284 -330 l57 -39 21 22 c27 27 21 41 -56
137 -31 39 -59 81 -62 95 -3 14 -9 41 -14 61 -19 72 -3 210 28 241 7 7 12 17
12 23 0 6 55 52 123 102 193 144 294 260 339 388 20 54 23 130 9 168 -17 44
-76 94 -156 131 -22 10 -48 23 -59 28 -93 47 -325 63 -418 29z m321 -251 c23
-17 49 -46 58 -65 15 -31 15 -40 4 -73 -35 -99 -180 -183 -316 -183 -56 0 -85
10 -122 44 -45 41 -17 123 72 213 66 66 122 92 201 93 53 1 67 -3 103 -29z"/>
<path d="M4505 2900 c-81 -17 -151 -51 -245 -121 -86 -63 -107 -86 -248 -275
-168 -225 -186 -260 -186 -354 0 -80 13 -116 64 -173 79 -90 220 -91 395 -5
128 64 242 168 346 318 21 30 57 81 80 114 155 220 154 373 -2 471 -42 27
-138 39 -204 25z m66 -271 c34 -27 39 -36 39 -73 0 -58 -52 -142 -144 -232
-138 -136 -231 -152 -285 -47 -20 39 -10 92 31 169 41 76 228 214 292 214 17
0 44 -12 67 -31z"/>
</g>
</svg>
