<?xml version="1.0" standalone="no"?>
<!DOCTYPE svg PUBLIC "-//W3C//DTD SVG 20010904//EN"
 "http://www.w3.org/TR/2001/REC-SVG-20010904/DTD/svg10.dtd">
<svg version="1.0" xmlns="http://www.w3.org/2000/svg"
 width="300.000000pt" height="245.000000pt" viewBox="0 0 300.000000 245.000000"
 preserveAspectRatio="xMidYMid meet">
<metadata>
Created by potrace 1.10, written by Peter Selinger 2001-2011
</metadata>
<g transform="translate(0.000000,245.000000) scale(0.050000,-0.050000)"
fill="#000000" stroke="none">
<path d="M2781 3887 c-124 -158 63 -345 217 -215 116 97 54 268 -98 268 -59 0
-87 -12 -119 -53z"/>
<path d="M938 3583 c-112 -91 -13 -303 129 -275 121 25 177 128 124 230 -47
91 -169 113 -253 45z"/>
<path d="M4720 3420 c-94 -94 -24 -268 108 -268 145 0 222 183 114 271 -62 49
-171 48 -222 -3z"/>
<path d="M2866 3410 c-42 -103 -6 -1108 48 -1310 12 -46 6 -44 -73 28 -282
252 -1508 965 -1631 948 -104 -15 10 -745 250 -1594 135 -477 143 -480 190
-82 89 754 125 797 600 709 726 -134 665 -140 1198 116 286 136 387 176 410
161 67 -42 116 -308 171 -926 36 -393 44 -447 71 -430 56 35 580 1820 580
1979 0 48 -90 4 -770 -380 -271 -153 -567 -288 -632 -289 -99 -1 -187 220
-281 712 -65 340 -99 434 -131 358z m-1001 -915 c147 -87 173 -135 73 -135
-97 0 -191 -56 -296 -176 -88 -100 -99 -107 -118 -72 -33 64 -104 421 -104
529 l0 102 155 -85 c85 -46 216 -120 290 -163z m2475 50 c0 -63 -103 -414
-129 -442 -21 -22 -34 3 -70 138 -25 91 -49 176 -54 190 -9 23 179 146 228
148 14 0 25 -15 25 -34z"/>
<path d="M3525 2170 c-268 -116 -168 -859 116 -859 172 0 253 172 234 497 -21
351 -126 460 -350 362z m178 -193 c35 -35 40 -58 31 -145 -20 -197 -92 -269
-162 -162 -114 173 -1 439 131 307z"/>
<path d="M2008 2053 c-255 -116 -218 -547 74 -850 118 -123 194 -106 89 20
-112 132 -89 236 79 372 235 189 274 334 115 421 -105 58 -272 75 -357 37z
m263 -174 c45 -50 28 -87 -71 -154 -168 -114 -299 2 -149 133 83 73 166 81
220 21z"/>
<path d="M2930 1911 c-148 -68 -370 -351 -370 -472 0 -266 340 -188 554 127
185 272 81 467 -184 345z m118 -143 c85 -33 -77 -288 -182 -288 -113 0 -102
126 20 230 83 71 106 79 162 58z"/>
</g>
</svg>
